<?xml version="1.0" encoding="utf-8"?>
<!-- Generator: Adobe Illustrator 26.0.3, SVG Export Plug-In . SVG Version: 6.00 Build 0)  -->
<svg version="1.0" id="Layer_1" xmlns="http://www.w3.org/2000/svg" xmlns:xlink="http://www.w3.org/1999/xlink" x="0px" y="0px"
	 viewBox="0 0 677.5 504.2" style="enable-background:new 0 0 677.5 504.2;" xml:space="preserve">
<style type="text/css">
	.st0{clip-path:url(#SVGID_00000134212685530249380320000000800604523476096946_);}
	.st1{fill:#192435;}
	.st2{fill-rule:evenodd;clip-rule:evenodd;fill:#192435;}
</style>
<g>
	<defs>
		<rect id="SVGID_1_" x="99" y="178" width="483.2" height="148.7"/>
	</defs>
	<clipPath id="SVGID_00000013190329788569737010000016281836871373742242_">
		<use xlink:href="#SVGID_1_"  style="overflow:visible;"/>
	</clipPath>
	<g style="clip-path:url(#SVGID_00000013190329788569737010000016281836871373742242_);">
		<path class="st1" d="M168,210.1c3.3,1.7,5.7,5.7,4.5,9.5c-0.7,2.2-3,4.1-5.1,5.1l-18,9.2l-43.9,23.2c-2.5,1.4-6.5,0.8-6.5-2.9
			c0.1-1.3,0.8-2.4,1.9-3.1l15.5-12.8c-3.6-1.9-7.3-4.5-9-5.4c-2.9-1.4-4.7-4.4-4.7-7.6v-39.4c-0.1-1.3,0-2.6,0.3-3.8
			c0.2-0.7,0.5-1.4,1-2c0.5-0.6,1.1-1,1.7-1.4c0.7-0.4,1.4-0.6,2.1-0.6c0.7-0.1,1.5,0,2.2,0.2c0.5,0.2,1,0.4,1.4,0.7L168,210.1
			L168,210.1z"/>
		<path class="st1" d="M168.6,233.3c4.6-2.4,8.4-0.2,8.4,5v40c0,5.2-3.8,11.5-8.4,13.9l-61.3,33c-4.6,2.5-8.4,0.2-8.4-5v-40
			c0-5.2,3.8-11.5,8.4-13.9L168.6,233.3L168.6,233.3z"/>
		<path class="st2" d="M385.1,236.5h-26.3c0.2-4.5,1.5-7.9,3.9-10.3c2.5-2.4,5.8-3.7,9.3-3.6c4.1,0,7.3,1.2,9.5,3.6
			C383.6,228.5,384.8,231.9,385.1,236.5L385.1,236.5z M402.6,256.6h-12.9c-1.7-0.1-3.4,0.3-4.8,1.3c-1.7,1.3-2.9,3.3-4.8,4.4
			c-2.3,1.3-4.9,1.9-7.5,1.8c-4.5,0-7.8-1.4-10-4.1c-2.4-2.6-3.7-6.1-3.9-11.4h44.8c0-11.1-1.5-22.7-9.2-31.6
			c-5.6-6.2-12.7-9.3-23-9.3c-9.8,0-17.4,3.2-22.9,9.5c-5.3,6.2-8,14.8-8,25.8c0,11.5,2.7,19.9,8.2,26.1c5.5,6.4,13.1,9.3,22.9,9.3
			c8.1,0,14.8-1.6,20.1-5.6C397.2,269,400.8,263.9,402.6,256.6L402.6,256.6z M458.1,243.8c0,6.2-1.3,11.1-3.9,14.7
			c-2.4,3.5-6.3,5.5-10.6,5.4c-4.8,0-8.5-1.8-11.1-5.4c-2.6-3.3-3.9-8.2-3.9-14.7c0-9.4,3-20.9,14.4-20.9S458.1,234.2,458.1,243.8z
			 M427.9,295.1v-26.3c4.1,7.1,12.5,10.3,20.4,10.3c8.1,0,14.7-3.3,19.8-9.8c5.6-7.3,7.6-16.6,7.7-25.6c0.1-9.9-1.8-20.9-9.2-28
			c-6.1-6-14.8-7.9-23.1-7.9c-9,0-19.1,2.7-25.4,9.5c-4.6,4.7-6.9,12-6.9,21.7v65.4h8.8C424.7,304.3,427.9,299.9,427.9,295.1z
			 M268.6,243.8c0,6.2-1.3,11.1-3.9,14.7c-2.4,3.5-6.3,5.5-10.6,5.4c-4.8,0-8.5-1.8-11.1-5.4c-2.6-3.3-3.9-8.2-3.9-14.7
			c0-9.4,3-20.9,14.4-20.9S268.6,234.2,268.6,243.8z M238.4,295.1v-26.3c4.1,7.1,12.5,10.3,20.3,10.3c8.1,0,14.7-3.3,19.8-9.8
			c5.6-7.3,7.6-16.6,7.7-25.6c0.1-9.9-1.8-20.9-9.2-28c-6.1-6-14.8-7.9-23.1-7.9c-9,0-19.1,2.7-25.4,9.5c-4.6,4.7-6.9,12-6.9,21.7
			v65.4h8.8C235.2,304.3,238.4,299.9,238.4,295.1L238.4,295.1z M521.4,288.1v14.7h6.4c5.4,0,11.7,0,16.3-3.1
			c3.1-2.4,5.7-6.4,7.7-12.1l26.7-79.9h-13c-4.5,0-7,3.9-8.1,8l-12.1,42.2l-15.2-50.2h-18.6l24,70.1c1.2,3.6,0.8,6.2-1.2,7.8
			C530.8,288.7,525.8,288.1,521.4,288.1L521.4,288.1z M296,278.3l-0.1-33.5c0-10.3,2.7-21.1,11.1-27.8c7.5-6,18.7-7.5,28-7.5v18.3
			c-5.3,0-13.4-0.5-17.5,3.6c-2.4,2.4-3,6.2-3,11.3v35.6H296z M504.1,278.3h-18.5V198c0.2-4.8,4-8.6,8.8-8.8h9.8L504.1,278.3z"/>
	</g>
</g>
</svg>
